# xmcd CD database file
#
# Track frame offsets:
#	150
#	18834
#	43960
#	75343
#	103715
#	129273
#	153176
#	177207
#	199295
#	220324
#
# Disc length: 3177 seconds
#
# Revision: 0
# Processed by: cddbd v1.5.2PL0 Copyright (c) Steve Scherf et al.
# Submitted via: CDex 1.81
#
DISCID=7b0c670a
DTITLE=Manhattan Jazz Quintet - It Don't Mean A Thing (If It Ain't Got That Swing)
DYEAR=2000
DGENRE=Jazz
TTITLE0=It Don't Mean A Thing (If It Ain't Got That Swing)
TTITLE1=Les Liaisons Dangereuses
TTITLE2=The Chicken
TTITLE3=What A Wonderful World
TTITLE4=I Love Paris
TTITLE5=Satin Doll
TTITLE6=Quizas Quizas Quizas
TTITLE7=Someday My Prince Will Come
TTITLE8=Take The A Train
TTITLE9=Candy
EXTD=YEAR: 2000
EXTT0=
EXTT1=
EXTT2=
EXTT3=
EXTT4=
EXTT5=
EXTT6=
EXTT7=
EXTT8=
EXTT9=
PLAYORDER=
